<?xml version="1.0" standalone="no"?>
<!DOCTYPE svg PUBLIC "-//W3C//DTD SVG 20010904//EN"
 "http://www.w3.org/TR/2001/REC-SVG-20010904/DTD/svg10.dtd">
<svg version="1.0" xmlns="http://www.w3.org/2000/svg"
 width="138" height="31" viewBox="0 0 3450.000000 731.000000"
 preserveAspectRatio="xMidYMid meet">

<g transform="translate(0.000000,731.000000) scale(0.100000,-0.100000)"
fill="#35b653" stroke="none">
<path d="M3460 7110 c-230 -21 -587 -100 -825 -183 -190 -67 -455 -190 -625
-292 -621 -373 -1107 -913 -1402 -1560 -155 -339 -265 -744 -298 -1100 -14
-151 -14 -525 0 -681 35 -389 163 -839 342 -1199 240 -482 584 -901 1013
-1231 789 -607 1794 -846 2795 -664 218 40 487 119 695 206 201 84 540 270
665 364 19 15 71 53 115 86 204 150 477 418 640 629 490 633 737 1351 738
2145 0 779 -238 1488 -711 2114 -179 238 -492 541 -737 717 -302 216 -633 383
-970 492 -240 77 -510 134 -744 157 -116 11 -562 11 -691 0z m1534 -649 c3 -4
43 -11 88 -15 46 -4 87 -11 92 -16 6 -6 18 -10 28 -10 10 0 26 -4 36 -9 34
-18 90 -41 101 -41 6 0 35 -16 65 -35 30 -19 59 -35 64 -35 4 0 18 -11 30 -25
12 -14 27 -25 34 -25 6 0 51 -42 100 -92 107 -113 110 -117 134 -157 10 -17
22 -31 26 -31 4 0 8 -9 8 -20 0 -11 5 -20 10 -20 6 0 10 -4 10 -10 0 -17 34
-90 42 -90 5 0 8 -9 8 -20 0 -11 4 -20 8 -20 5 0 14 -24 20 -52 6 -29 14 -66
17 -83 4 -16 10 -39 15 -50 5 -11 11 -67 14 -125 9 -143 7 -1325 -1 -1347 -9
-25 -34 -42 -61 -43 -24 0 -52 21 -52 39 0 6 -4 11 -10 11 -7 0 -10 242 -10
705 0 427 -4 712 -10 723 -5 9 -12 43 -15 75 -4 31 -11 57 -16 57 -5 0 -9 8
-9 18 0 22 -22 72 -32 72 -4 0 -10 16 -14 35 -3 19 -10 35 -15 35 -5 0 -9 4
-9 10 0 5 -7 18 -15 27 -8 10 -15 21 -15 26 0 4 -13 21 -30 39 -16 17 -30 35
-30 39 0 11 -129 139 -140 139 -4 0 -16 8 -28 18 -54 46 -63 52 -70 51 -14 -2
-52 13 -52 21 0 5 -33 20 -72 35 -40 14 -81 30 -90 36 -10 5 -31 9 -47 9 -16
0 -31 5 -33 11 -5 15 -341 14 -346 0 -2 -6 -19 -11 -37 -11 -19 0 -37 -4 -40
-10 -3 -5 -17 -10 -30 -10 -13 0 -27 -4 -30 -10 -3 -5 -13 -10 -21 -10 -20 0
-101 -37 -109 -50 -3 -5 -13 -10 -21 -10 -9 0 -21 -6 -29 -12 -29 -28 -56 -48
-64 -48 -12 0 -171 -159 -171 -171 0 -5 -3 -9 -8 -9 -4 0 -16 -17 -27 -37 -11
-21 -25 -44 -32 -51 -16 -16 -53 -100 -53 -118 0 -8 -4 -14 -8 -14 -18 0 -53
-141 -59 -232 l-5 -68 721 0 c469 0 722 -3 726 -10 3 -5 19 -10 36 -10 16 0
29 -4 29 -10 0 -5 5 -10 11 -10 15 0 79 -31 104 -50 46 -36 107 -104 132 -148
38 -64 37 -56 40 -2024 l3 -1918 -1162 -2 c-640 -2 -1526 -2 -1971 0 l-807 2
3 1898 c2 1043 7 1914 11 1935 5 20 12 40 17 43 5 3 9 14 9 25 0 10 5 19 11
19 6 0 9 7 5 15 -3 8 -1 15 4 15 6 0 10 6 10 13 0 14 87 107 100 107 5 0 12 9
15 20 3 11 15 20 26 20 10 0 19 4 19 10 0 5 16 12 35 16 19 3 38 10 41 15 3 5
16 9 29 9 13 0 27 5 30 10 4 7 288 10 819 10 l813 0 7 38 c3 20 6 58 6 85 0
26 5 47 10 47 6 0 10 15 10 33 0 19 3 37 7 41 11 11 32 79 27 88 -3 4 0 8 5 8
6 0 11 14 11 30 0 17 5 30 10 30 6 0 10 7 10 15 0 8 4 15 9 15 5 0 11 12 14
28 3 15 15 37 26 49 12 12 21 27 21 33 0 5 4 10 9 10 5 0 13 9 16 21 9 28 219
239 238 239 9 0 19 9 22 20 3 11 14 20 24 20 10 0 24 7 31 15 7 8 19 15 26 15
8 0 14 3 14 8 0 9 74 42 94 42 8 0 18 5 21 10 3 6 15 10 26 10 10 0 19 4 19 9
0 5 12 11 28 14 15 3 47 10 72 16 25 6 65 10 90 11 25 0 52 5 60 10 19 12 187
13 194 1z m1094 -1016 l22 -25 0 -645 c0 -392 -4 -645 -9 -645 -5 0 -13 -9
-16 -20 -4 -14 -15 -20 -36 -20 -16 0 -29 4 -29 9 0 5 -9 11 -20 14 -20 5 -20
14 -20 661 l0 655 22 21 c29 27 60 25 86 -5z m167 9 c20 -15 20 -27 20 -674 0
-647 0 -659 -20 -674 -29 -22 -63 -19 -90 9 l-25 24 0 637 c0 627 0 636 21
665 23 33 61 38 94 13z m133 10 l22 -6 0 -684 0 -684 -38 0 c-21 0 -43 5 -50
12 -9 9 -12 175 -12 683 0 370 3 675 7 678 8 9 41 9 71 1z"/>
<path d="M2268 5113 c-21 -9 -38 -20 -38 -24 0 -5 -7 -9 -15 -9 -8 0 -20 -10
-26 -22 -7 -13 -22 -31 -33 -41 -21 -19 -21 -25 -26 -670 -7 -973 2 -2079 18
-2085 6 -2 12 -10 12 -18 0 -25 66 -79 111 -93 24 -7 54 -17 67 -22 33 -13
2939 -12 2947 1 3 6 17 10 31 10 53 0 129 58 155 118 8 17 17 32 21 32 5 0 8
601 8 1335 0 1050 -3 1340 -12 1357 -21 36 -31 49 -67 85 -67 68 52 63 -1610
62 -1331 -1 -1510 -3 -1543 -16z m2051 -63 c11 -14 25 -30 31 -37 13 -15 14
-593 1 -593 -5 0 -11 -8 -14 -19 -6 -24 -61 -51 -102 -51 -42 0 -72 -16 -118
-62 -31 -31 -38 -46 -43 -95 -8 -62 -28 -90 -79 -110 -34 -14 -195 -15 -195
-2 0 5 -5 9 -11 9 -5 0 -24 13 -41 29 -26 24 -33 40 -39 89 -5 44 -13 67 -30
84 -35 35 -87 58 -131 58 -21 0 -38 5 -38 10 0 6 -7 10 -15 10 -21 0 -55 32
-55 52 0 9 -4 20 -10 23 -6 4 -10 102 -10 261 0 163 4 254 10 254 6 0 10 13
10 28 0 34 16 56 55 77 26 13 82 15 417 13 l386 -3 21 -25z m-309 -1010 c0
-13 -95 -110 -108 -110 -14 0 -122 99 -122 112 0 5 52 8 115 7 63 0 115 -4
115 -9z m-30 -270 c0 -40 4 -70 10 -70 6 0 10 -11 10 -24 0 -14 5 -28 10 -31
6 -4 8 -11 4 -16 -3 -6 4 -18 15 -28 12 -10 21 -23 21 -30 0 -6 4 -11 9 -11 5
0 13 -9 16 -20 3 -11 12 -20 20 -20 7 0 27 -11 43 -25 33 -28 92 -46 174 -52
54 -5 58 -6 77 -44 12 -22 21 -46 21 -53 0 -8 3 -16 8 -18 11 -5 62 -106 62
-123 0 -8 5 -15 10 -15 6 0 10 -7 10 -15 0 -8 4 -15 10 -15 5 0 12 -16 16 -35
3 -19 9 -35 13 -35 4 0 13 -16 21 -35 8 -19 17 -35 21 -35 4 0 10 -16 13 -35
4 -19 11 -35 16 -35 6 0 10 -7 10 -15 0 -8 5 -15 10 -15 6 0 10 -9 10 -20 0
-11 4 -20 9 -20 5 0 12 -16 15 -35 4 -19 10 -35 15 -35 4 0 13 -16 21 -35 8
-19 18 -35 23 -35 5 0 7 -6 4 -14 -3 -8 -3 -16 1 -18 10 -4 62 -111 62 -126 0
-7 5 -12 10 -12 6 0 10 -7 10 -15 0 -8 5 -15 10 -15 6 0 10 -9 10 -19 0 -11 5
-21 12 -23 6 -2 9 -12 5 -21 -6 -16 -73 -17 -942 -17 -617 0 -935 3 -935 10 0
6 4 10 9 10 5 0 12 16 15 35 4 19 11 35 16 35 6 0 10 9 10 20 0 11 5 20 10 20
6 0 10 7 10 15 0 8 4 15 9 15 5 0 12 16 15 35 4 19 11 35 16 35 6 0 10 9 10
20 0 11 5 20 10 20 6 0 10 7 10 15 0 8 4 15 9 15 5 0 12 16 15 35 4 19 11 35
16 35 6 0 10 9 10 20 0 11 5 20 10 20 6 0 10 4 10 10 0 17 34 90 42 90 5 0 8
7 8 15 0 8 4 15 9 15 5 0 12 16 15 35 4 19 11 35 16 35 6 0 10 9 10 20 0 11 5
20 10 20 6 0 10 7 10 15 0 8 4 15 9 15 5 0 12 16 15 35 4 19 11 35 16 35 6 0
10 9 10 20 0 11 5 20 10 20 6 0 10 7 10 15 0 8 4 15 9 15 5 0 12 16 15 35 4
19 11 35 16 35 6 0 10 9 10 20 0 11 3 20 8 20 4 0 12 10 17 23 10 22 12 22
280 27 149 3 264 7 257 8 -7 1 -11 6 -7 11 3 5 -3 12 -14 16 -10 3 -24 19 -31
35 -7 17 -16 30 -21 30 -5 0 -6 7 -3 15 4 8 1 15 -5 15 -6 0 -11 9 -11 20 0
11 -4 20 -10 20 -5 0 -10 11 -10 25 0 14 -4 25 -9 25 -13 0 -23 151 -10 166 7
9 33 14 70 14 l59 0 0 -70z m1350 -1455 l0 -65 -1490 0 -1490 0 0 65 0 65
1490 0 1490 0 0 -65z"/>
<path d="M3527 3290 c-9 -11 -17 -27 -17 -35 0 -8 -4 -15 -10 -15 -5 0 -12
-16 -16 -35 -3 -19 -10 -35 -15 -35 -5 0 -9 -7 -9 -15 0 -8 -4 -15 -9 -15 -5
0 -12 -16 -15 -35 -4 -19 -11 -35 -16 -35 -6 0 -10 -9 -10 -20 0 -11 -4 -20
-10 -20 -5 0 -10 -7 -10 -15 0 -8 -4 -15 -9 -15 -5 0 -12 -16 -15 -35 -4 -19
-11 -35 -16 -35 -6 0 -10 -7 -10 -15 0 -8 -4 -15 -10 -15 -5 0 -10 -9 -10 -20
0 -11 -4 -20 -10 -20 -5 0 -12 -16 -16 -35 -3 -19 -10 -35 -15 -35 -5 0 -9 -7
-9 -15 0 -8 -4 -15 -10 -15 -5 0 -10 -9 -10 -19 0 -11 -5 -23 -10 -26 -6 -4
-8 -11 -5 -16 4 -5 1 -9 -4 -9 -6 0 -11 -9 -11 -20 0 -11 -4 -20 -10 -20 -5 0
-10 -7 -10 -15 0 -8 -4 -15 -10 -15 -5 0 -10 -7 -10 -15 0 -13 58 -15 460 -15
l460 0 0 44 c0 25 -4 48 -10 51 -5 3 -10 37 -10 75 0 38 -4 72 -10 75 -5 3
-10 35 -10 70 0 35 -4 66 -9 69 -5 3 -12 70 -15 148 -4 79 -12 153 -18 166
-11 22 -13 22 -242 22 -220 0 -232 -1 -249 -20z"/>
<path d="M16895 4999 c-196 -13 -409 -66 -550 -136 -187 -94 -340 -274 -389
-458 -23 -84 -31 -245 -17 -334 23 -145 103 -297 206 -389 157 -139 360 -217
829 -317 272 -59 369 -95 421 -157 24 -28 27 -38 23 -87 -4 -48 -10 -59 -41
-86 -56 -48 -96 -57 -278 -62 -188 -6 -265 7 -333 55 -53 37 -93 112 -103 192
l-8 65 -383 3 -382 2 0 -47 c0 -81 28 -237 55 -308 131 -350 442 -516 1021
-545 629 -32 1014 118 1196 466 55 104 78 199 85 344 7 161 -7 248 -58 348
-85 172 -236 292 -464 372 -104 36 -350 99 -510 130 -320 62 -439 119 -452
218 -15 115 131 189 356 180 89 -3 106 -7 167 -38 79 -41 121 -96 132 -176 l7
-49 379 -3 379 -2 -6 92 c-14 226 -119 403 -321 540 -211 144 -568 214 -961
187z" fill="black"/>
<path d="M8230 3695 l0 -1265 400 0 400 0 2 453 3 452 528 3 527 2 0 290 0
290 -527 2 -528 3 0 215 0 215 613 3 612 2 0 300 0 300 -1015 0 -1015 0 0
-1265z" fill="black"/>
<path d="M10680 3695 l0 -1265 1053 2 1052 3 3 323 2 322 -650 0 -650 0 0 940
0 940 -405 0 -405 0 0 -1265z" fill="black"/>
<path d="M13826 4951 c-6 -10 -119 -315 -376 -1021 -61 -168 -138 -377 -170
-465 -33 -88 -109 -297 -170 -465 -61 -168 -131 -359 -156 -425 -24 -66 -44
-126 -44 -133 0 -10 86 -12 412 -10 l411 3 39 125 c21 69 46 149 54 178 l15
52 443 0 442 0 55 -177 55 -178 427 -3 c269 -1 427 1 427 7 0 6 -21 65 -46
133 -25 68 -110 301 -189 518 -79 217 -192 526 -250 685 -58 160 -133 364
-166 455 -33 91 -106 291 -162 445 l-102 280 -472 3 c-266 1 -474 -2 -477 -7z
m548 -966 c42 -143 98 -336 126 -430 27 -93 50 -178 50 -188 0 -16 -17 -17
-264 -17 -145 1 -266 3 -269 6 -5 5 11 59 172 604 98 330 89 306 101 294 5 -5
43 -126 84 -269z" fill="black"/>
<path d="M18670 3695 l0 -1265 403 2 402 3 3 478 2 477 445 0 445 0 2 -477 3
-478 405 0 405 0 3 1263 2 1262 -410 0 -410 0 0 -460 0 -460 -445 0 -445 0 0
460 0 460 -405 0 -405 0 0 -1265z" fill="black"/>
<path d="M21732 3698 l3 -1263 405 0 405 0 3 407 2 407 378 4 c428 4 445 7
597 82 226 112 374 318 426 592 16 85 6 359 -16 438 -24 90 -107 252 -164 321
-90 110 -227 199 -381 246 l-75 22 -793 4 -792 3 2 -1263z m1303 627 c75 -46
100 -103 100 -225 0 -127 -30 -185 -120 -233 -37 -20 -58 -22 -252 -25 l-213
-3 0 261 0 261 218 -3 219 -3 48 -30z" fill="black"/>
<path d="M24400 3695 l0 -1265 403 2 402 3 3 458 2 458 152 -3 152 -3 221
-455 221 -455 452 -3 c336 -2 452 1 452 9 0 10 -335 648 -510 971 l-42 78 47
20 c207 89 369 280 422 499 20 81 22 263 4 346 -67 311 -313 536 -643 590 -78
12 -229 15 -915 15 l-823 0 0 -1265z m1451 658 c37 -21 63 -45 84 -78 26 -42
30 -58 30 -119 -1 -79 -21 -130 -72 -178 -58 -55 -77 -58 -393 -58 l-290 0 0
229 c0 210 1 230 18 234 9 3 141 4 293 3 l275 -2 55 -31z" fill="black"/>
<path d="M27300 3695 l0 -1265 403 2 402 3 3 1263 2 1262 -405 0 -405 0 0
-1265z" fill="black"/>
<path d="M28692 3698 l3 -1263 372 -3 373 -2 2 612 3 613 350 -404 c652 -754
698 -806 711 -814 7 -4 168 -6 359 -5 l346 3 2 1262 2 1263 -372 0 -373 0 0
-616 c0 -346 -4 -614 -9 -612 -5 2 -103 113 -218 248 -267 312 -723 848 -787
923 l-48 57 -359 0 -359 0 2 -1262z" fill="black"/>
<path d="M31570 4645 c0 -300 1 -315 19 -325 13 -6 162 -10 415 -10 l396 0 2
-937 3 -938 405 0 405 0 3 938 2 937 28 0 c15 0 198 1 407 3 l380 2 3 323 2
322 -1235 0 -1235 0 0 -315z" fill="black"/>
</g>
</svg>
